<svg width="161" height="63" viewBox="0 0 191 63" fill="none" xmlns="http://www.w3.org/2000/svg"><path d="M89.105 23.607h3.72v16.045h-3.72v-1.68c-1.526 1.427-3.166 2.14-4.923 2.14-2.217 0-4.05-.8-5.499-2.404-1.438-1.636-2.156-3.68-2.156-6.128 0-2.405.719-4.41 2.156-6.013 1.438-1.603 3.238-2.405 5.4-2.405 1.867 0 3.54.769 5.022 2.306v-1.861zm-8.792 7.973c0 1.537.412 2.79 1.235 3.756.845.977 1.91 1.466 3.194 1.466 1.372 0 2.48-.472 3.326-1.417.845-.977 1.267-2.218 1.267-3.723 0-1.504-.422-2.745-1.267-3.723-.845-.955-1.943-1.433-3.293-1.433-1.273 0-2.338.483-3.194 1.45-.845.977-1.268 2.185-1.268 3.624zm20.893 16.803h-3.704V23.607h3.704v1.746c1.46-1.46 3.117-2.191 4.972-2.191 2.206 0 4.023.813 5.45 2.438 1.448 1.614 2.173 3.651 2.173 6.111 0 2.406-.719 4.41-2.157 6.013-1.427 1.593-3.227 2.389-5.4 2.389-1.877 0-3.556-.752-5.038-2.257v10.526zm8.808-16.655c0-1.538-.417-2.79-1.251-3.756-.845-.977-1.91-1.466-3.194-1.466-1.361 0-2.464.472-3.309 1.417-.845.944-1.268 2.185-1.268 3.723 0 1.504.423 2.745 1.268 3.723.834.955 1.931 1.433 3.292 1.433 1.285 0 2.344-.483 3.178-1.45.856-.966 1.284-2.174 1.284-3.624zm11.41-8.121v16.045h-3.705V23.607h3.705zm-4.264-6.672c0-.648.236-1.208.707-1.68a2.314 2.314 0 011.696-.709c.67 0 1.241.237 1.712.709a2.28 2.28 0 01.708 1.696c0 .67-.236 1.241-.708 1.714a2.276 2.276 0 01-1.695.708c-.67 0-1.241-.236-1.713-.708a2.357 2.357 0 01-.707-1.73zm12.776 10.131v12.586h-3.705V27.066h-1.58v-3.46h1.58v-5.88h3.705v5.88h2.881v3.46h-2.881zm4.873 4.448c0-2.317.829-4.289 2.486-5.914 1.657-1.625 3.677-2.438 6.059-2.438 2.392 0 4.423.818 6.091 2.454 1.647 1.637 2.47 3.646 2.47 6.03 0 2.405-.829 4.42-2.486 6.045-1.669 1.615-3.716 2.422-6.141 2.422-2.404 0-4.418-.824-6.043-2.471-1.624-1.626-2.436-3.668-2.436-6.128zm3.787.066c0 1.603.428 2.872 1.284 3.805.878.945 2.036 1.417 3.474 1.417 1.448 0 2.606-.467 3.473-1.4.868-.934 1.301-2.18 1.301-3.74s-.433-2.806-1.301-3.74c-.878-.944-2.036-1.416-3.473-1.416-1.416 0-2.563.472-3.441 1.417-.878.944-1.317 2.163-1.317 3.657zm17.83 6.227c0-.615.225-1.148.675-1.598.45-.45.988-.676 1.613-.676a2.2 2.2 0 011.614.676c.45.45.675.988.675 1.614 0 .637-.225 1.18-.675 1.631-.439.44-.977.659-1.614.659-.647 0-1.19-.22-1.63-.659-.439-.44-.658-.988-.658-1.647zm13.533-14.2v16.045h-3.704V23.607h3.704zm-4.264-6.672c0-.648.236-1.208.708-1.68a2.313 2.313 0 011.696-.709c.669 0 1.24.237 1.712.709a2.28 2.28 0 01.708 1.696c0 .67-.236 1.241-.708 1.714a2.278 2.278 0 01-1.696.708c-.669 0-1.24-.236-1.712-.708a2.354 2.354 0 01-.708-1.73zm8.199 14.579c0-2.317.829-4.289 2.486-5.914 1.658-1.625 3.677-2.438 6.059-2.438 2.393 0 4.423.818 6.092 2.454 1.646 1.637 2.469 3.646 2.469 6.03 0 2.405-.829 4.42-2.486 6.045-1.668 1.615-3.715 2.422-6.141 2.422-2.404 0-4.418-.824-6.042-2.471-1.625-1.626-2.437-3.668-2.437-6.128zm3.787.066c0 1.603.428 2.872 1.284 3.805.878.945 2.036 1.417 3.474 1.417 1.449 0 2.607-.467 3.474-1.4.867-.934 1.3-2.18 1.3-3.74s-.433-2.806-1.3-3.74c-.878-.944-2.036-1.416-3.474-1.416-1.416 0-2.563.472-3.441 1.417-.878.944-1.317 2.163-1.317 3.657z" fill="#263238"/><path d="M0 20.555C0 9.203 9.203 0 20.555 0h21.503C53.41 0 62.613 9.203 62.613 20.555v21.503c0 11.352-9.203 20.555-20.555 20.555H20.555C9.203 62.613 0 53.41 0 42.058V20.555z" fill="#E73A55"/><path d="M22.32 24.403c0 .758-.402 1.46-1.056 1.842l-1.661.973c-3.624 2.122-3.624 7.36 0 9.48l1.669.978a2.12 2.12 0 011.048 1.829c0 1.63-1.764 2.65-3.176 1.837l-6.55-3.771c-4.33-2.494-4.336-8.74-.01-11.241l6.533-3.776c1.423-.823 3.203.204 3.203 1.849zm14.95-9.857a1.92 1.92 0 011.804 2.578 2846.195 2846.195 0 01-5.258 14.263c-1.899 5.183-3.81 10.38-5.735 15.588a1.917 1.917 0 11-3.597-1.33c1.758-4.763 3.506-9.516 5.244-14.258 1.925-5.18 3.838-10.373 5.738-15.578a1.922 1.922 0 011.804-1.263zm3.022 24.931c0-.762.406-1.466 1.065-1.848l1.66-.96c3.626-2.1 3.634-7.334.014-9.445l-1.68-.98a2.134 2.134 0 01-1.059-1.843c0-1.644 1.78-2.67 3.202-1.848l6.534 3.776c4.326 2.501 4.321 8.748-.01 11.242l-6.525 3.757c-1.424.82-3.201-.208-3.201-1.85z" fill="#fff"/></svg>